<svg width="540" height="293" viewBox="0 0 540 293" fill="none" xmlns="http://www.w3.org/2000/svg">
<g clip-path="url(#clip0)">
<rect width="540" height="293" fill="#EDE9FE"/>
<rect x="176.645" y="41.7294" width="166.764" height="33.3529" rx="10" transform="rotate(-20.9651 176.645 41.7294)" fill="#E9E4FF"/>
<rect x="235.645" y="172.729" width="166.764" height="33.3529" rx="10" transform="rotate(-20.9651 235.645 172.729)" fill="#E9E4FF"/>
<rect x="349.054" y="-24.3318" width="166.764" height="33.3529" rx="10" transform="rotate(-20.9651 349.054 -24.3318)" fill="#E9E4FF"/>
<rect x="406" y="98.6682" width="166.764" height="33.3529" rx="10" transform="rotate(-20.9651 406 98.6682)" fill="#E9E4FF"/>
<rect x="7.57236" y="106.512" width="166.764" height="33.3529" rx="10" transform="rotate(-20.9651 7.57236 106.512)" fill="#E9E4FF"/>
<rect x="66.5724" y="237.512" width="166.764" height="33.3529" rx="10" transform="rotate(-20.9651 66.5724 237.512)" fill="#E9E4FF"/>
<rect x="152.797" y="99.3407" width="166.764" height="33.3529" rx="10" transform="rotate(-20.9651 152.797 99.3407)" fill="#E9E4FF"/>
<rect x="211.797" y="230.341" width="166.764" height="33.3529" rx="10" transform="rotate(-20.9651 211.797 230.341)" fill="#E9E4FF"/>
<rect x="460.409" y="233.434" width="166.764" height="33.3529" rx="10" transform="rotate(-20.9651 460.409 233.434)" fill="#E9E4FF"/>
<rect x="329.655" y="31.5747" width="166.764" height="33.3529" rx="10" transform="rotate(-20.9651 329.655 31.5747)" fill="#E9E4FF"/>
<rect x="388.655" y="162.575" width="166.764" height="33.3529" rx="10" transform="rotate(-20.9651 388.655 162.575)" fill="#E9E4FF"/>
<rect x="-19.6124" y="165.402" width="166.764" height="33.3529" rx="10" transform="rotate(-20.9651 -19.6124 165.402)" fill="#E9E4FF"/>
<rect x="39.3876" y="296.402" width="166.764" height="33.3529" rx="10" transform="rotate(-20.9651 39.3876 296.402)" fill="#E9E4FF"/>
<rect x="288" y="299.495" width="166.764" height="33.3529" rx="10" transform="rotate(-20.9651 288 299.495)" fill="#E9E4FF"/>
<rect x="146.746" y="150.133" width="166.764" height="33.3529" rx="10" transform="rotate(-20.9651 146.746 150.133)" fill="#E9E4FF"/>
<rect x="205.746" y="281.133" width="166.764" height="33.3529" rx="10" transform="rotate(-20.9651 205.746 281.133)" fill="#E9E4FF"/>
<rect x="454.358" y="284.226" width="166.764" height="33.3529" rx="10" transform="rotate(-20.9651 454.358 284.226)" fill="#E9E4FF"/>
<rect x="319.155" y="84.0715" width="166.764" height="33.3529" rx="10" transform="rotate(-20.9651 319.155 84.0715)" fill="#E9E4FF"/>
<rect x="497" y="15.6682" width="166.764" height="33.3529" rx="10" transform="rotate(-20.9651 497 15.6682)" fill="#E9E4FF"/>
<rect x="378.155" y="215.072" width="166.764" height="33.3529" rx="10" transform="rotate(-20.9651 378.155 215.072)" fill="#E9E4FF"/>
<rect x="-29" y="217.473" width="166.764" height="33.3529" rx="10" transform="rotate(-20.9651 -29 217.473)" fill="#E9E4FF"/>
<rect x="30" y="348.473" width="166.764" height="33.3529" rx="10" transform="rotate(-20.9651 30 348.473)" fill="#E9E4FF"/>
<rect x="-102" y="303.668" width="166.764" height="33.3529" rx="10" transform="rotate(-20.9651 -102 303.668)" fill="#E9E4FF"/>
<rect x="-17.8153" y="17.4508" width="166.764" height="33.3529" rx="10" transform="rotate(-20.9651 -17.8153 17.4508)" fill="#E9E4FF"/>
<rect x="127.409" y="10.2795" width="166.764" height="33.3529" rx="10" transform="rotate(-20.9651 127.409 10.2795)" fill="#E9E4FF"/>
<rect x="-45" y="76.3407" width="166.764" height="33.3529" rx="10" transform="rotate(-20.9651 -45 76.3407)" fill="#E9E4FF"/>
</g>
<defs>
<clipPath id="clip0">
<rect width="540" height="293" fill="white"/>
</clipPath>
</defs>
</svg>
