<?xml version="1.0" encoding="UTF-8" standalone="no"?>
<svg
   xmlns:dc="http://purl.org/dc/elements/1.1/"
   xmlns:cc="http://creativecommons.org/ns#"
   xmlns:rdf="http://www.w3.org/1999/02/22-rdf-syntax-ns#"
   xmlns:svg="http://www.w3.org/2000/svg"
   xmlns="http://www.w3.org/2000/svg"
   xmlns:sodipodi="http://sodipodi.sourceforge.net/DTD/sodipodi-0.dtd"
   xmlns:inkscape="http://www.inkscape.org/namespaces/inkscape"
   width="210mm"
   height="297mm"
   viewBox="0 0 210 297"
   version="1.1"
   id="svg5"
   inkscape:version="1.0.2-2 (e86c870879, 2021-01-15)"
   sodipodi:docname="Logo.svg">
  <title
     id="title11">AllULogo</title>
  <sodipodi:namedview
     id="namedview7"
     pagecolor="#505050"
     bordercolor="#eeeeee"
     borderopacity="1"
     inkscape:pageshadow="0"
     inkscape:pageopacity="0"
     inkscape:pagecheckerboard="0"
     inkscape:document-units="mm"
     showgrid="false"
     inkscape:zoom="0.58412764"
     inkscape:cx="328.43979"
     inkscape:cy="476.0452"
     inkscape:window-width="1680"
     inkscape:window-height="987"
     inkscape:window-x="-8"
     inkscape:window-y="-8"
     inkscape:window-maximized="1"
     inkscape:current-layer="layer1"
     inkscape:document-rotation="0"
     inkscape:rotation="1" />
  <defs
     id="defs2">
    <rect
       x="26.700739"
       y="98.756157"
       width="1.8288177"
       height="61.814039"
       id="rect859" />
  </defs>
  <g
     inkscape:label="Layer 1"
     inkscape:groupmode="layer"
     id="layer1">
    <text
       xml:space="preserve"
       id="text857"
       style="font-style:normal;font-weight:normal;font-size:10.5833px;line-height:1.25;font-family:sans-serif;white-space:pre;shape-inside:url(#rect859);fill:#ffffff;fill-opacity:1;stroke:none;"><tspan
         style="visibility:hidden"
         x="26.701172"
         y="169.93405"><tspan
           dx="0 7.2398453 3.5656624 3.5656624 7.746273">A;;U
</tspan></tspan></text>
    <g
       id="g889"
       transform="translate(275.39643,23.100687)">
      <path
         style="fill:#7033bf;fill-opacity:1;stroke:#ffffff;stroke-width:2;stroke-linecap:butt;stroke-linejoin:miter;stroke-miterlimit:4;stroke-dasharray:none;stroke-opacity:1"
         d="m 7.383772,160.8467 46.015501,36.75453 53.701187,0.0915 -47.458513,-37.87806 z"
         id="path869"
         inkscape:transform-center-x="24.910148"
         inkscape:transform-center-y="-24.139364" />
      <path
         style="fill:#7033bf;fill-opacity:1;stroke:#ffffff;stroke-width:2;stroke-linecap:butt;stroke-linejoin:miter;stroke-miterlimit:4;stroke-dasharray:none;stroke-opacity:1"
         d="m 207.21553,161.94326 -46.41611,36.24733 -53.69896,-0.49786 47.87136,-37.35495 z"
         id="path869-3" />
      <path
         style="fill:#b6aed8;fill-opacity:1;stroke:#ffffff;stroke-width:2;stroke-linecap:butt;stroke-linejoin:miter;stroke-miterlimit:4;stroke-dasharray:none;stroke-opacity:1"
         d="m 195.06966,138.00629 -35.85733,46.71804 -52.11187,12.9684 36.98876,-48.15487 z"
         id="path893"
         inkscape:transform-center-x="-0.8689226"
         inkscape:transform-center-y="12.44473" />
      <path
         style="fill:#b6aed8;fill-opacity:1;stroke:#ffffff;stroke-width:2;stroke-linecap:butt;stroke-linejoin:miter;stroke-miterlimit:4;stroke-dasharray:none;stroke-opacity:1"
         d="m 21.020841,135.31206 34.394119,47.80551 51.6855,14.57516 -35.480537,-49.27666 z"
         id="path895"
         inkscape:transform-center-x="17.613681"
         inkscape:transform-center-y="-29.467549" />
      <path
         style="fill:#7033bf;fill-opacity:1;stroke:#ffffff;stroke-width:2;stroke-linecap:butt;stroke-linejoin:miter;stroke-miterlimit:4;stroke-dasharray:none;stroke-opacity:1"
         d="m 176.88431,117.49755 -22.7201,54.33342 -47.06375,25.86176 23.44655,-56.01178 z"
         id="path897"
         inkscape:transform-center-x="-4.0220176"
         inkscape:transform-center-y="11.80888" />
      <path
         style="fill:#7033bf;fill-opacity:1;stroke:#ffffff;stroke-width:2;stroke-linecap:butt;stroke-linejoin:miter;stroke-miterlimit:4;stroke-dasharray:none;stroke-opacity:1"
         d="m 38.41705,116.5531 21.976822,54.63828 46.706588,26.50135 -22.68031,-56.32639 z"
         id="path899"
         inkscape:transform-center-x="10.063474"
         inkscape:transform-center-y="-32.822319" />
      <path
         style="fill:#b6aed8;fill-opacity:1;stroke:none;stroke-width:0.264583px;stroke-linecap:butt;stroke-linejoin:miter;stroke-opacity:1"
         d="m 99.499577,141.71419 c 0,0 -13.910909,-2.35829 -23.054998,-9.67356 -1.966517,-1.57321 -9.982094,-10.95059 -9.982094,-10.95059 l 4.116679,-0.65057 -6.36984,-2.21364 -11.628842,-14.89716 2.256625,-1.00926 -4.787932,-2.725604 c 0,0 -17.814627,-17.574203 -22.634706,-25.123239 -4.820079,-7.549036 1.856352,-7.161353 1.856352,-7.161353 l -6.227719,-2.934832 c 0,0 1.463055,-18.653939 -3.291871,-27.798028 -4.754926,-9.144089 -0.357495,-10.284964 20.84852,0.731528 7.462657,3.876839 15.017994,8.874912 16.906524,11.702461 1.88853,2.827548 3.155069,10.009054 3.155069,10.009054 l 1.184062,-8.080362 c 0,0 10.827817,10.472215 14.964937,16.72722 7.536371,11.394408 22.437447,26.758885 27.855387,42.042475 0.48297,1.36243 -0.75398,9.20867 -0.75398,9.20867 0,0 2.27676,-3.40722 2.4044,-2.55047 1.88301,12.6399 -3.15244,23.36678 -3.15244,23.36678 l 6.74824,29.8434 -1.59486,-1.13317 z"
         id="path901"
         sodipodi:nodetypes="cscccccczcczszccsscscccc" />
      <path
         style="fill:#ffffff;fill-opacity:1;stroke:none;stroke-width:0.264583px;stroke-linecap:butt;stroke-linejoin:miter;stroke-opacity:1"
         d="m 104.07812,140.69384 c 0,0 -15.441763,-25.05801 -30.182909,-46.482636 C 59.738536,73.636039 46.644764,55.02633 43.937346,53.584358 c -3.062533,-1.631106 -3.977681,-1.371612 -3.977681,-1.371612 0,0 21.883598,28.414799 32.288852,43.061788 10.405254,14.646986 31.787583,48.359586 31.787583,48.359586 z"
         id="path903"
         sodipodi:nodetypes="cssczcc" />
    </g>
    <ellipse
       style="fill:#b6aed8;fill-opacity:1;fill-rule:evenodd;stroke:none;stroke-width:8.94608;stroke-miterlimit:4;stroke-dasharray:none;stroke-opacity:1"
       id="path45"
       cx="103.98623"
       cy="157.8206"
       rx="100.76221"
       ry="94.505241" />
    <path
       style="fill:#7033bf;fill-opacity:1;stroke:none;stroke-width:0.184921px;stroke-linecap:butt;stroke-linejoin:miter;stroke-opacity:1"
       d="m 13.438283,162.96563 c 1.374133,1.36663 0.204373,1.80519 0.960929,4.11835 1.64326,5.02423 4.359135,12.53027 5.457958,12.7441 0.652659,0.12699 5.167243,0.44116 9.51926,0.78933 1.111782,0.0889 1.258362,-0.80028 2.449176,-0.53757 0.935526,0.20638 0.467629,1.25333 1.411119,1.57914 4.713216,1.6276 10.670131,3.77207 12.295993,5.97579 3.043153,4.12476 -0.758432,8.16758 -1.423395,12.12054 -0.09709,0.57719 0.705574,0.8283 0.73171,1.41781 0.0294,0.66307 -0.95836,1.28115 -0.650498,1.96789 2.302448,5.13596 9.755455,8.27085 16.746296,11.20177 0.483072,0.20253 1.931451,1.5792 2.022555,2.09477 0.186373,1.05472 1.035235,1.70098 1.197319,2.70805 0.267464,1.66183 -0.32925,3.55458 -0.302106,5.56599 0.03092,2.29132 -0.189021,6.13789 -0.32166,6.96262 -0.09593,0.59651 -1.08582,3.05382 -1.116774,4.90298 -0.05813,3.47336 0.701693,6.23613 3.65699,7.26577 1.404391,0.48929 1.772676,1.76028 2.952062,1.48322 1.07998,-0.25372 1.428388,-2.04214 2.420118,-2.84546 1.375029,-1.1138 2.856865,-1.8893 4.213289,-3.48128 0.109566,-0.12859 -0.06193,-0.7665 0.0472,-0.89869 0.117077,-0.14184 0.521534,0.39034 0.873358,-0.0385 2.799827,-3.41286 5.158904,-7.81546 7.787804,-10.76946 1.755582,-1.97268 4.06003,-4.56178 6.415479,-7.32763 1.189645,-1.39691 2.713244,-0.73112 3.945002,-3.56677 1.621343,-3.73251 2.536026,-8.11622 4.67954,-10.11577 1.665473,-1.55361 2.591983,-2.5315 2.290973,-3.34671 -1.27522,-3.45356 -11.100243,-5.48016 -14.531489,-7.47547 -0.399392,-0.23225 -2.220933,0.002 -2.796517,-0.44166 -0.224375,-0.17262 0.863302,-0.94454 0.616444,-1.14301 -4.560316,-3.66655 -12.75174,-11.45059 -16.987594,-12.48633 -5.053354,-1.23562 -8.344553,1.8736 -9.628331,2.18588 -0.722085,0.17565 -7.778415,1.04055 -9.277568,-2.13638 -0.352299,-0.74657 1.299989,-3.54406 2.601473,-4.96863 0.688287,-0.75339 2.857118,-1.39781 3.251453,-2.16559 0,0 -1.596754,-0.10318 -1.686781,-0.93599 -0.134033,-1.23992 -9.186231,6.34531 -9.97296,5.52259 -3.971593,-4.15332 -11.551034,-6.91636 -6.876112,-18.22195 1.223801,-2.95957 5.604694,-9.41669 10.463927,-11.00732 2.904969,-0.95093 7.913392,0.64467 11.657364,0.83046 1.335119,0.0663 -0.619973,10.87176 2.535217,10.05223 3.155188,-0.81953 2.179196,-11.33429 3.025338,-11.78975 9.354029,-5.03518 17.303232,-12.5588 21.879863,-17.32837 2.356177,-2.45551 7.941018,-4.40117 10.540382,-6.39961 0.821509,-0.63159 -3.760133,4.47788 -0.959152,2.32942 0.536831,-0.41178 3.109823,-4.72652 3.512063,-5.66444 0.399789,-0.93222 -3.679956,-1.51659 -3.196196,-2.30672 0.572288,-0.93471 1.774576,-1.8934 1.487163,-2.7461 -0.287412,-0.8527 -3.572808,0.46012 -7.436324,1.06806 -4.407397,0.69353 -9.023179,5.08968 -8.919195,4.29335 0.103984,-0.79633 3.814386,-4.28457 8.626503,-5.78334 7.57329,-2.35875 17.303299,-5.35879 17.351409,-5.48121 0.96659,-2.46045 -4.70779,-4.29972 -4.84094,-6.81441 -0.20551,-3.88087 -5.190552,-1.97751 -7.9157,-3.24556 -2.388851,-1.111568 -2.357935,-5.529398 -5.040569,-6.721573 -5.742924,-2.55218 -16.366444,-3.348321 -19.697961,0.273237 -0.900431,0.978826 -1.952037,0.519098 -2.081895,1.512905 -0.350604,2.683183 1.980728,6.878311 1.560362,9.767751 -0.127008,0.87301 0.379332,5.45573 -0.848168,7.30936 0,0 2.822405,2.71612 1.928577,4.71178 -1.221756,2.72783 -6.703168,2.38412 -8.181302,3.67031 -1.239428,1.07849 2.39625,6.55591 0.713545,6.28124 -2.454837,-0.4007 -1.889087,-4.96918 -4.078939,-5.69573 -3.517701,-1.16709 -12.603986,-3.66622 -12.320762,-8.15798 0.283225,-4.49176 10.717557,-6.83586 12.837773,-10.61711 2.120218,-3.781258 4.203175,-6.356873 1.283778,-9.368021 -0.679849,-0.701218 9.48576,-9.397552 8.371332,-10.110276 -0.985152,-0.630052 -5.272459,1.793933 -5.107648,-0.392277 0.61985,-8.222295 -14.763521,3.884841 -14.760945,3.884841 0.0026,0 -15.333593,5.552207 -20.422341,11.930825 -5.088747,6.378598 -9.803163,14.593948 -10.765996,15.843018 -0.962833,1.24907 -7.544291,15.69607 -8.6654967,24.12269 -0.3889579,2.92328 -0.4385592,10.68115 0.4037146,18.82958 0.04255,0.41163 -0.5128609,1.01893 -0.4624622,1.43094 0.051245,0.41887 0.7470086,0.72081 0.8036158,1.13937 0.5023665,3.71453 1.3565675,7.50261 2.1349625,10.52909 0.63042,2.45112 2.22776,6.43313 2.990026,7.1774 0.916798,0.89516 -1.4485,-3.91756 -1.72877,-7.60935 -0.303201,-3.99382 -0.523406,-8.32319 0.352134,-7.45243 z"
       id="path1788"
       sodipodi:nodetypes="sssssssssssssssssssssssssssssssssssssssszsssssszszssssssssssssszzssszzzsssssssss" />
    <path
       style="fill:#7033bf;fill-opacity:1;stroke:none;stroke-width:0.184921px;stroke-linecap:butt;stroke-linejoin:miter;stroke-opacity:1"
       d="m 107.47498,71.158911 c -1.48087,1.078637 -5.08038,0.728546 -5.57886,1.715011 0,0 2.38039,1.607133 2.88323,2.831544 1.08958,2.653122 1.08402,6.13187 1.62876,8.625526 0.13463,0.61625 1.74223,1.324651 1.87299,1.995852 0.0972,0.498748 -1.18855,0.289053 -1.12891,0.798576 0.44876,3.834156 1.33656,8.47629 2.04709,9.257356 0.93203,1.024546 5.37847,5.996024 10.38148,11.092784 3.08053,3.13825 4.84136,7.51714 9.2133,3.42012 4.37193,-4.09702 1.62981,-5.63622 3.53935,-10.77813 1.90954,-5.141927 1.41232,-2.457958 3.7056,-7.412161 2.29329,-4.954206 17.41875,-2.793394 14.24191,-12.812745 -0.82285,-2.595162 -5.75895,-4.971544 -9.89782,-6.376731 -11.70186,-3.972911 -24.6123,-8.399574 -32.90812,-2.357002 z"
       id="path1790"
       sodipodi:nodetypes="ssssssssczzsss" />
    <path
       style="fill:#7033bf;fill-opacity:1;stroke:none;stroke-width:0.184921px;stroke-linecap:butt;stroke-linejoin:miter;stroke-opacity:1"
       d="m 198.04595,140.63252 c -2.10717,-8.20071 -18.38937,-9.82676 -22.48111,-10.59651 -3.20237,-0.60245 -4.10008,-2.54555 -7.00852,-2.34943 -4.8576,0.32755 -11.29157,3.42706 -13.90253,5.30134 -6.1717,4.43034 -5.10527,7.42422 -6.15859,12.3139 -0.41198,1.91251 -0.47856,3.93819 0.34663,6.69893 0.18054,0.60406 1.12955,1.83794 1.31225,2.44602 0.17126,0.56996 -0.66128,1.17653 -0.49076,1.73164 0.94183,3.06604 2.89001,5.71409 4.00051,6.34013 2.50637,1.41293 11.05212,0.33231 16.71623,2.32069 3.51564,1.23416 8.56025,1.3647 10.7643,2.91999 1.34694,0.95048 0.2757,2.92216 1.11064,4.57443 1.13482,2.2457 -0.83121,3.94927 -1.34633,7.06924 -0.48403,2.93173 0.52901,7.32423 0.0626,8.23188 -0.53076,1.03282 1.19633,5.7278 0.85529,11.24943 -0.27762,4.495 -2.76477,9.98545 -2.13684,10.85535 1.74738,2.42071 8.76404,-8.2031 11.23082,-12.73675 2.46677,-4.53365 13.97951,-29.69552 7.76734,-53.87214 z"
       id="path1792"
       sodipodi:nodetypes="sssssssssssssssszss" />
    <path
       style="fill:#7033bf;fill-opacity:1;stroke:none;stroke-width:0.184921px;stroke-linecap:butt;stroke-linejoin:miter;stroke-opacity:1"
       d="m 167.65204,96.296476 c 0.83054,0.97307 0.17121,6.815654 -2.72803,9.914494 -2.49269,2.66429 -7.50519,0.11012 -10.10401,1.38749 -0.42386,0.20835 -1.88805,1.0022 -2.09188,1.42291 -0.28828,0.59503 0.16321,1.55647 -0.18265,2.38272 -0.42474,1.01468 -1.04185,1.98657 -1.1995,3.02344 -0.15817,1.04024 0.14351,2.1455 -0.0332,3.20272 -0.22685,1.35753 -1.53673,4.16789 -0.79402,5.01821 1.46988,1.68279 3.76512,0.48069 6.73601,0.27299 1.81358,-0.1268 3.98572,0.29976 6.0645,0.0739 5.48413,-0.59582 4.98778,-0.56465 8.82597,-2.42006 3.34046,-1.61481 2.17359,-9.3585 4.17307,-8.27683 0.44369,0.24002 2.01473,0.70891 2.89324,1.61398 0.72761,0.7496 1.80535,2.26514 2.61776,3.19417 1.44726,1.65501 2.70851,2.72052 3.92775,3.57186 0.62512,0.43649 0.10045,2.96688 0.63285,3.07858 0.46212,0.0969 2.16292,-2.7217 2.44444,-3.20129 0.16319,-0.27803 -1.28011,-0.90857 -1.78506,-1.38787 -2.0697,-1.96459 -5.03906,-5.51958 -5.13941,-6.32783 -0.14834,-1.19485 6.69321,2.64824 6.0064,1.27456 -3.76,-7.5203 -14.31958,-16.969047 -17.77695,-20.121129 -3.0124,-2.746411 -4.29498,-3.699034 -4.72305,-2.995485 -0.44403,0.729745 -2.37265,3.150449 -1.77607,3.112594 0,0 3.18126,1.212802 4.0118,2.185872 z"
       id="path1794"
       sodipodi:nodetypes="zssssssssssssssssssssssz" />
  </g>
  <metadata
     id="metadata9">
    <rdf:RDF>
      <cc:Work
         rdf:about="">
        <dc:title>AllULogo</dc:title>
        <dc:format>image/svg+xml</dc:format>
        <dc:type
           rdf:resource="http://purl.org/dc/dcmitype/StillImage" />
      </cc:Work>
    </rdf:RDF>
  </metadata>
</svg>
